<?xml version="1.0" encoding="UTF-8"?>
<svg xmlns="http://www.w3.org/2000/svg" xmlns:xlink="http://www.w3.org/1999/xlink" width="256pt" height="256pt" viewBox="0 0 256 256" version="1.1">
<g id="surface1">
<path style=" stroke:none;fill-rule:nonzero;fill:rgb(0%,0%,0%);fill-opacity:1;" d="M 253.863281 54.550781 C 252.746094 50.035156 247.09375 48.503906 243.804688 51.796875 L 206.625 88.976563 L 172.683594 83.320313 L 167.03125 49.378906 L 204.210938 12.199219 C 207.519531 8.890625 205.925781 3.25 201.378906 2.121094 C 177.691406 -3.75 151.605469 2.574219 133.089844 21.085938 C 113.269531 40.90625 107.816406 69.636719 116.066406 94.683594 L 9.371094 201.378906 C -3.125 213.875 -3.125 234.136719 9.371094 246.628906 C 21.863281 259.125 42.125 259.125 54.621094 246.628906 L 161.226563 140.023438 C 186.285156 148.378906 214.960938 142.863281 234.910156 122.914063 C 253.445313 104.378906 259.761719 78.253906 253.863281 54.550781 Z M 32 236 C 25.375 236 20 230.625 20 224 C 20 217.371094 25.375 212 32 212 C 38.625 212 44 217.371094 44 224 C 44 230.625 38.625 236 32 236 Z M 32 236 "/>
</g>
</svg>
