<?xml version="1.0" encoding="UTF-8"?>
<svg xmlns="http://www.w3.org/2000/svg" xmlns:xlink="http://www.w3.org/1999/xlink" width="290pt" height="256pt" viewBox="0 0 290 256" version="1.1">
<g id="surface1">
<path style=" stroke:none;fill-rule:nonzero;fill:rgb(27.450982%,50.980395%,70.588237%);fill-opacity:1;" d="M 290 113.300781 C 290 59.550781 225.0625 16 145 16 C 64.9375 16 0 59.550781 0 113.300781 C 0 161.199219 51.5625 201 119.492188 209.050781 L 119.492188 240 L 168.957031 240 L 168.957031 209.25 C 181.085938 207.898438 192.71875 205.550781 203.597656 202.300781 L 223.613281 240 L 279.519531 240 L 245.875 183.148438 C 273.078125 165.449219 290 140.699219 290 113.300781 Z M 57 120.550781 C 57 83.800781 106.367188 54.050781 167.210938 54.050781 C 228.058594 54.050781 272.980469 74.398438 272.980469 120.550781 C 272.980469 145.601563 259.753906 163.050781 237.890625 173.75 C 236.691406 172.949219 235.542969 172.300781 234.695313 171.898438 C 229.605469 169.300781 220.820313 166.648438 220.820313 166.648438 C 220.820313 166.648438 264.042969 163.449219 264.042969 120.300781 C 264.042969 77.148438 218.824219 76.351563 218.824219 76.351563 L 119.492188 76.351563 L 119.492188 180.5 C 82.507813 169.75 57 146.949219 57 120.550781 Z M 169.359375 139.699219 L 169.359375 111.898438 C 198.207031 111.898438 213.183594 108.5 213.183594 125.550781 C 213.183594 143.800781 194.117188 139.699219 169.359375 139.699219 Z M 168.910156 175.949219 L 182.1875 175.949219 C 187.578125 175.949219 191.621094 181.800781 194.164063 185.550781 C 186.128906 186.5 177.695313 186.949219 168.910156 187 Z M 168.910156 175.949219 "/>
</g>
</svg>
